<!-- https://thenounproject.com/term/page-not-found/1754912/ -->
<svg height='200px' width='200px'  fill="#000000" xmlns="http://www.w3.org/2000/svg" xmlns:xlink="http://www.w3.org/1999/xlink" version="1.1" x="0px" y="0px" viewBox="0 0 100 100" style="enable-background:new 0 0 100 100;" xml:space="preserve"><g><path d="M87.263,19.267c0-1.312,1.063-2.374,2.374-2.374c1.312,0,2.375,1.063,2.375,2.374s-1.063,2.374-2.375,2.374   C88.326,21.641,87.263,20.579,87.263,19.267z M40.828,51.33c1.077,0,1.949-0.873,1.949-1.949c0-3.982,3.24-7.223,7.223-7.223   s7.223,3.24,7.223,7.223c0,3.982-3.24,7.222-7.223,7.222c-1.077,0-1.949,0.871-1.949,1.949v5.59c0,1.078,0.873,1.949,1.949,1.949   c1.076,0,1.949-0.871,1.949-1.949V60.33c5.206-0.924,9.172-5.482,9.172-10.949c0-6.133-4.989-11.121-11.121-11.121   c-6.132,0-11.121,4.988-11.121,11.121C38.879,50.458,39.752,51.33,40.828,51.33z M50.071,68.561c-1.847,0-3.344,1.496-3.344,3.344   c0,1.846,1.497,3.344,3.344,3.344c1.846,0,3.343-1.498,3.343-3.344C53.414,70.057,51.917,68.561,50.071,68.561z M100,10.69v78.621   H0V10.69H100z M96.102,28.266H3.898v57.146h92.203V28.266z M96.102,14.588H3.898v9.779h92.203V14.588z M73.9,21.641   c1.311,0,2.374-1.063,2.374-2.374s-1.063-2.374-2.374-2.374s-2.374,1.063-2.374,2.374S72.59,21.641,73.9,21.641z M81.769,21.641   c1.312,0,2.374-1.063,2.374-2.374s-1.063-2.374-2.374-2.374s-2.374,1.063-2.374,2.374S80.457,21.641,81.769,21.641z"></path></g></svg>